<svg width="121" height="120" viewBox="0 0 121 120" fill="none" xmlns="http://www.w3.org/2000/svg">
<rect x="0.5" width="120" height="120" rx="10" fill="#E7F4F2"/>
<path d="M14.5522 32.9925C14.5522 28.3434 18.3211 24.5746 22.9702 24.5746H98.0299C102.679 24.5746 106.448 28.3434 106.448 32.9925V87.0075C106.448 91.6565 102.679 95.4254 98.0299 95.4254H22.9702C18.3211 95.4254 14.5522 91.6565 14.5522 87.0075V32.9925Z" fill="#F4FAFE"/>
<path d="M98.0299 24.5746H22.9702C18.3211 24.5746 14.5522 28.3434 14.5522 32.9925V44.5672H106.448V32.9925C106.448 28.3434 102.679 24.5746 98.0299 24.5746Z" fill="#67CF8B"/>
<path d="M106.448 87.0075V32.9925C106.448 28.3434 102.679 24.5746 98.0299 24.5746H60.5V95.4254H98.0299C102.679 95.4254 106.448 91.6565 106.448 87.0075Z" fill="#E3EBEF"/>
<path d="M98.0299 24.5746H60.5V44.3918H106.448V32.9925C106.448 28.3434 102.679 24.5746 98.0299 24.5746Z" fill="#53B379"/>
<rect x="37" y="30.5373" width="47" height="5.61194" rx="2.80597" fill="#53B379"/>
<path d="M67.1642 60C67.1642 58.4503 68.4205 57.194 69.9702 57.194H97.3284C98.8781 57.194 100.134 58.4503 100.134 60C100.134 61.5497 98.8781 62.806 97.3284 62.806H69.9702C68.4205 62.806 67.1642 61.5497 67.1642 60Z" fill="#8B9FAD"/>
<path d="M67.1642 69.8209C67.1642 68.2712 68.4205 67.0149 69.9702 67.0149H97.3284C98.8781 67.0149 100.134 68.2712 100.134 69.8209C100.134 71.3706 98.8781 72.6268 97.3284 72.6268H69.9702C68.4205 72.6268 67.1642 71.3706 67.1642 69.8209Z" fill="#8B9FAD"/>
<path d="M67.1642 79.6418C67.1642 78.0921 68.4205 76.8358 69.9702 76.8358H97.3284C98.8781 76.8358 100.134 78.0921 100.134 79.6418C100.134 81.1915 98.8781 82.4478 97.3284 82.4478H69.9702C68.4205 82.4478 67.1642 81.1915 67.1642 79.6418Z" fill="#8B9FAD"/>
<path d="M60.5 36.1492H81.194C82.7437 36.1492 84 34.893 84 33.3433C84 31.7936 82.7437 30.5373 81.194 30.5373H60.5V36.1492Z" fill="#408E60"/>
<path d="M21.5672 57.194C21.5672 55.6443 22.8234 54.3881 24.3731 54.3881H50.3284C51.8781 54.3881 53.1343 55.6443 53.1343 57.194V83.1493C53.1343 84.6989 51.8781 85.9552 50.3284 85.9552H24.3731C22.8234 85.9552 21.5672 84.6989 21.5672 83.1493V57.194Z" fill="#A7CAF8"/>
<path d="M53.1343 83.1493V57.194C53.1343 55.6443 51.8781 54.3881 50.3284 54.3881H37.3508V85.9552H50.3284C51.8781 85.9552 53.1343 84.699 53.1343 83.1493Z" fill="#75A9F8"/>
<path d="M37.3507 69.8209C30.1512 69.8209 24.2464 76.9222 23.6716 85.9553H51.0299C50.4551 76.9222 44.5503 69.8209 37.3507 69.8209Z" fill="#75A9F8"/>
<path d="M51.0299 85.9553C50.4551 76.9222 44.5503 69.8209 37.3508 69.8209V85.9553H51.0299Z" fill="#3D82E3"/>
<path d="M44.3657 65.2612C44.3657 69.1354 41.225 72.2761 37.3508 72.2761C33.4765 72.2761 30.3358 69.1354 30.3358 65.2612C30.3358 61.387 33.4765 58.2463 37.3508 58.2463C41.225 58.2463 44.3657 61.387 44.3657 65.2612Z" fill="#F1DCCE"/>
<path d="M37.3508 72.2761C41.225 72.2761 44.3657 69.1354 44.3657 65.2612C44.3657 61.387 41.225 58.2463 37.3508 58.2463V72.2761Z" fill="#EACBBD"/>
</svg>
