<svg width="120" height="120" viewBox="0 0 120 120" fill="none" xmlns="http://www.w3.org/2000/svg">
<rect width="120" height="120" rx="10" fill="#E7F4F2"/>
<rect x="14" y="95.1062" width="85.9429" height="6.52245" fill="#2F597D"/>
<rect x="18.6041" y="13" width="76.7347" height="82.1061" fill="#8FCCEE"/>
<path fill-rule="evenodd" clip-rule="evenodd" d="M47.7632 22.9756H30.1143V19.9062H48.5306C49.802 19.9062 50.8326 20.9369 50.8326 22.2083V39.0899C50.8326 40.3613 49.802 41.392 48.5306 41.392H30.1143V38.3226H47.7632V22.9756Z" fill="white"/>
<path fill-rule="evenodd" clip-rule="evenodd" d="M30.1143 29.1144H50.8326V32.1838H30.1143V29.1144Z" fill="white"/>
<path fill-rule="evenodd" clip-rule="evenodd" d="M39.1465 53.6694H25.8938V50.6H39.9139C41.1852 50.6 42.2159 51.6307 42.2159 52.9021V65.5633C42.2159 66.8347 41.1853 67.8653 39.9139 67.8653H25.8938V64.796H39.1465V53.6694Z" fill="white"/>
<path fill-rule="evenodd" clip-rule="evenodd" d="M25.8938 57.698H41.8642V60.7674H25.8938V57.698Z" fill="white"/>
<path fill-rule="evenodd" clip-rule="evenodd" d="M32.4162 80.5265H25.8938V77.4572H33.1836C34.455 77.4572 35.4856 78.4878 35.4856 79.7592V85.9594C35.4856 87.2307 34.455 88.2614 33.1836 88.2614H25.8938V85.192H32.4162V80.5265Z" fill="white"/>
<path fill-rule="evenodd" clip-rule="evenodd" d="M50.449 84.3634V77.8409H53.5184V85.1307C53.5184 86.4021 52.4878 87.4328 51.2164 87.4328H45.0162C43.7449 87.4328 42.7142 86.4021 42.7142 85.1307V77.8409H45.7836V84.3634H50.449Z" fill="white"/>
<path fill-rule="evenodd" clip-rule="evenodd" d="M86.5142 84.3634V77.8409H89.5836V85.1307C89.5836 86.4021 88.553 87.4328 87.2816 87.4328H81.0814C79.81 87.4328 78.7794 86.4021 78.7794 85.1307V77.8409H81.8488V84.3634H86.5142Z" fill="white"/>
<path fill-rule="evenodd" clip-rule="evenodd" d="M63.8775 80.9102V87.4327H60.8081V80.1429C60.8081 78.8715 61.8388 77.8408 63.1101 77.8408H69.3103C70.5817 77.8408 71.6124 78.8715 71.6124 80.1429V87.4327H68.543V80.9102H63.8775Z" fill="white"/>
<path fill-rule="evenodd" clip-rule="evenodd" d="M52.1595 53.6694H65.4122V50.6H51.3922C50.1208 50.6 49.0901 51.6307 49.0901 52.9021V65.5633C49.0901 66.8347 50.1208 67.8653 51.3922 67.8653H65.4122V64.796H52.1595V53.6694Z" fill="white"/>
<path fill-rule="evenodd" clip-rule="evenodd" d="M65.4122 57.698H49.4418V60.7674H65.4122V57.698Z" fill="white"/>
<path fill-rule="evenodd" clip-rule="evenodd" d="M85.747 54.0851L85.747 67.3378L88.8164 67.3378L88.8164 53.3178C88.8164 52.0464 87.7857 51.0157 86.5143 51.0157L73.8531 51.0158C72.5817 51.0158 71.5511 52.0464 71.5511 53.3178L71.5511 67.3379L74.6205 67.3379L74.6204 54.0852L85.747 54.0851Z" fill="white"/>
<path fill-rule="evenodd" clip-rule="evenodd" d="M81.7184 67.3378L81.7183 51.3674L78.6489 51.3674L78.649 67.3378L81.7184 67.3378Z" fill="white"/>
<path fill-rule="evenodd" clip-rule="evenodd" d="M81.9102 37.9388V20.2899H84.9796V38.7062C84.9796 39.9776 83.949 41.0082 82.6776 41.0082H65.7959C64.5246 41.0082 63.4939 39.9776 63.4939 38.7062V20.2899H66.5633V37.9388H81.9102Z" fill="white"/>
<path fill-rule="evenodd" clip-rule="evenodd" d="M75.7714 20.2899V41.0082H72.702V20.2899H75.7714Z" fill="white"/>
<path d="M76.5388 35.6367H73.0857L96.4898 107H106.273L76.5388 35.6367Z" fill="#367C73"/>
</svg>
