<svg width="121" height="120" viewBox="0 0 121 120" fill="none" xmlns="http://www.w3.org/2000/svg">
<rect x="0.5" width="120" height="120" rx="10" fill="#E7F4F2"/>
<path d="M78.7061 41.1L86.3134 31.8624C69.4685 19.908 55.8839 18.8212 39.039 28.6021C25.5631 36.4268 22.7375 53.0544 23.2809 60.1184H18.3286C16.455 60.1184 15.4593 62.3305 16.7016 63.7331L30.3449 79.1368L43.1531 63.6787C44.327 62.2619 43.3195 60.1184 41.4796 60.1184H35.7787C35.7787 56.3147 34.692 49.2507 43.3861 41.1C59.0356 28.9282 73.4534 36.0284 78.7061 41.1Z" fill="#6B9CE7"/>
<path d="M78.7061 41.1L86.3135 31.8625C78.5927 26.3833 71.5569 23.1871 64.5781 22.274V34.5841C70.9686 35.4019 76.0283 38.5146 78.7061 41.1Z" fill="#4E75C6"/>
<path d="M42.8427 78.0501L35.2354 87.2876C52.0803 99.242 65.6649 100.329 82.5098 90.548C95.9857 82.7232 98.8113 66.0956 98.2679 59.0316H103.22C105.094 59.0316 106.09 56.8195 104.847 55.417L91.2039 40.0132L78.3957 55.4713C77.2218 56.8881 78.2293 59.0316 80.0692 59.0316H85.7701C85.7701 62.8353 86.8568 69.8993 78.1627 78.0501C62.5132 90.2219 48.0954 83.1216 42.8427 78.0501Z" fill="#4E75C6"/>
<path d="M42.8427 78.0501L35.2354 87.2876C42.5555 92.4825 49.26 95.6252 55.8839 96.7156V84.4031C50.0074 83.3927 45.3669 80.4872 42.8427 78.0501Z" fill="#6B9CE7"/>
</svg>
