<svg width="120" height="120" viewBox="0 0 120 120" fill="none" xmlns="http://www.w3.org/2000/svg">
<rect width="120" height="120" rx="10" fill="#E7F4F2"/>
<path d="M55.9729 67.6927C45.2211 63.5114 41.3846 46.7013 40.5135 39.4836C38.8335 18.2038 68.6999 22.3104 73.3665 24.7371C77.0998 26.6784 80.6127 37.7414 80.426 41.3502C81.4215 40.728 83.5246 40.2676 83.9726 43.4035C84.2713 48.6301 80.6749 52.1996 79.1193 52.7596C76.2572 59.4173 66.7248 71.874 55.9729 67.6927Z" fill="#F8D2A1"/>
<path fill-rule="evenodd" clip-rule="evenodd" d="M51.0101 64.5194C52.4725 65.8764 54.1201 66.9721 55.9731 67.6927C61.1706 69.714 66.0832 67.8472 70.0951 64.627C68.5164 71.4365 72.1845 75.9756 74.227 77.3993L77.2137 88.7858H42.4941C41.623 86.2969 41.0007 80.5352 45.4807 77.3993C49.9606 74.2633 49.8362 67.506 49.214 64.5194H51.0101Z" fill="#ECBC8E"/>
<path d="M70.5328 84.3058C61.4989 89.3267 51.8355 86.3979 48.1331 84.3058V107.079H70.5328V84.3058Z" fill="#78B0E9"/>
<path d="M41.0006 77.0259C44.7339 77.0259 47.5339 74.5371 48.4672 73.2926L56.1205 107.079H22.1475C21.8364 101.915 21.8115 90.3164 24.2008 85.2392C27.1875 78.8926 36.334 77.0259 41.0006 77.0259Z" fill="white"/>
<path d="M97 91.5857V107.079H63.2137C65.3915 97.4968 69.971 77.2872 70.867 73.106C75.1602 77.0259 78.5202 76.4659 80.0135 76.8392C81.5068 77.2126 86.7334 76.8392 91.5867 80.7592C95.4693 83.8952 96.8133 89.2836 97 91.5857Z" fill="white"/>
<path d="M51.1535 70.8839C52.6805 69.5951 52.4264 64.3327 51.1535 62.1107C49.8806 59.8886 46.6362 58.9373 45.7402 57.444C44.6202 55.5774 44.4336 54.8307 44.8069 50.7241C45.1802 46.6175 46.4869 43.6308 48.9135 39.8976C51.3401 36.1643 56.5667 33.551 61.0467 32.431C65.5266 31.311 67.3933 30.191 68.6999 28.511C70.0439 36.2763 75.9799 40.582 78.7798 41.7642C79.8376 41.2042 82.1398 40.6815 82.8865 43.0709C83.2598 50.9108 79.5265 52.2174 78.4065 52.2174C78.2572 54.6067 73.0217 60.4307 70.7195 63.044L69.4128 65.0973C68.8528 67.835 69.1479 72.8252 72.4332 70.8839C76.5398 68.4573 80.2731 60.4307 84.7531 43.8175C89.233 27.2044 79.1532 16.9378 77.8465 16.1912C76.5399 15.4445 75.0466 15.4445 73.18 15.4445H73.1799C70.1933 14.1379 61.42 12.8312 56.5667 13.0179C51.7135 13.2045 41.6336 16.5645 34.727 33.551C29.2017 47.1402 37.527 69.5951 41.6336 70.8839C45.7402 72.1727 49.6264 72.1727 51.1535 70.8839Z" fill="#505050"/>
</svg>
