<svg width="120" height="120" viewBox="0 0 120 120" fill="none" xmlns="http://www.w3.org/2000/svg">
<rect width="120" height="120" rx="10" fill="#E7F4F2"/>
<path fill-rule="evenodd" clip-rule="evenodd" d="M20.5542 76.6521C23.6683 80.3262 28.6396 85.138 34.8129 89.2246C41.9609 93.9564 50.476 97.5565 59.4222 97.5565C68.376 97.5565 77.1793 93.952 84.7019 89.2013C91.1128 85.1528 96.4012 80.3924 99.8074 76.7142C96.1622 73.1749 90.6156 68.5708 84.0922 64.5959C76.4313 59.9278 67.7145 56.306 59.3184 56.0253C51.0474 55.7489 42.7009 59.1845 35.4351 63.9062C29.142 67.9959 23.9012 72.8948 20.5542 76.6521ZM32.0678 58.9125C39.8543 53.8523 49.4679 49.7039 59.526 50.0401C69.4379 50.3714 79.2225 54.58 87.3094 59.5076C95.431 64.4565 102.134 70.3107 105.949 74.3241C107.123 75.5595 107.182 77.4466 106.085 78.7505C102.508 82.9988 96.0776 89.1383 88.0023 94.2379C79.9452 99.3261 69.986 103.545 59.4222 103.545C48.8345 103.545 39.1345 99.3085 31.4023 94.1899C23.6611 89.0654 17.6473 82.8972 14.363 78.627C13.4155 77.395 13.4447 75.7033 14.427 74.5037C17.9503 70.2011 24.2505 63.9926 32.0678 58.9125Z" fill="#96C8F9"/>
<path fill-rule="evenodd" clip-rule="evenodd" d="M20.5542 76.6521C23.6683 80.3262 28.6396 85.138 34.8129 89.2246C41.9609 93.9564 50.476 97.5565 59.4222 97.5565C68.376 97.5565 72.7728 93.952 80.2954 89.2013C86.7063 85.1528 93.5829 78.7505 93.5829 76.6521C93.5829 74.5537 86.2091 68.5708 79.6857 64.5959C72.0247 59.9278 67.7145 56.306 59.3184 56.0253C51.0474 55.7489 42.7009 59.1845 35.4351 63.9062C29.142 67.9959 23.9012 72.8948 20.5542 76.6521ZM32.0678 58.9125C39.8543 53.8523 49.4679 49.7039 59.526 50.0401C69.4379 50.3714 74.816 54.58 82.9029 59.5076C91.0245 64.4565 97.7276 70.3107 101.542 74.3241C102.717 75.5595 102.776 77.4466 101.678 78.7505C98.1014 82.9988 91.671 89.1383 83.5958 94.2379C75.5387 99.3261 69.986 103.545 59.4222 103.545C48.8345 103.545 39.1345 99.3085 31.4023 94.1899C23.6611 89.0654 17.6473 82.8972 14.363 78.627C13.4155 77.395 13.4447 75.7033 14.427 74.5037C17.9503 70.2011 24.2505 63.9926 32.0678 58.9125Z" fill="#DCEBFC"/>
<path fill-rule="evenodd" clip-rule="evenodd" d="M20.5542 76.6521C23.6683 80.3262 28.6396 85.138 34.8129 89.2246C41.9609 93.9564 50.476 97.5565 59.4222 97.5565C68.376 97.5565 74.27 93.952 81.7926 89.2013C88.2034 85.1528 96.8981 79.7774 96.8981 76.7142C96.8981 73.651 87.7062 68.5708 81.1829 64.5959C73.5219 59.9278 67.7145 56.306 59.3184 56.0253C51.0474 55.7489 42.7009 59.1845 35.4351 63.9062C29.142 67.9959 23.9012 72.8948 20.5542 76.6521ZM32.0678 58.9125C39.8543 53.8523 49.4679 49.7039 59.526 50.0401C69.4379 50.3714 76.3131 54.58 84.4 59.5076C92.5217 64.4565 99.2248 70.3107 103.04 74.3241C104.214 75.5595 104.273 77.4466 103.175 78.7505C99.5986 82.9988 93.1682 89.1383 85.093 94.2379C77.0359 99.3261 69.986 103.545 59.4222 103.545C48.8345 103.545 39.1345 99.3085 31.4023 94.1899C23.6611 89.0654 17.6473 82.8972 14.363 78.627C13.4155 77.395 13.4447 75.7033 14.427 74.5037C17.9503 70.2011 24.2505 63.9926 32.0678 58.9125Z" fill="#BADAFB"/>
<ellipse cx="58.9605" cy="76.9706" rx="17.9662" ry="17.9662" fill="#9CE6D1"/>
<path fill-rule="evenodd" clip-rule="evenodd" d="M57.0962 94.8412C66.1426 93.9085 73.198 86.2634 73.198 76.9706C73.198 67.6777 66.1426 60.0327 57.0962 59.1C57.709 59.0368 58.331 59.0044 58.9606 59.0044C68.883 59.0044 76.9267 67.0481 76.9267 76.9706C76.9267 86.893 68.883 94.9367 58.9606 94.9367C58.331 94.9367 57.709 94.9043 57.0962 94.8412Z" fill="#81DEC5"/>
<ellipse cx="58.2915" cy="77.0499" rx="12.8058" ry="12.8058" transform="rotate(32.364 58.2915 77.0499)" fill="#3A8981"/>
<path fill-rule="evenodd" clip-rule="evenodd" d="M49.2434 86.116C55.0375 88.973 62.1736 87.0576 65.7098 81.4776C68.9828 76.3131 68.1005 69.7002 63.9414 65.5569C64.3504 65.7586 64.7527 65.984 65.1465 66.2336C71.1204 70.0195 72.8941 77.9313 69.1082 83.9051C65.3224 89.8789 57.4106 91.6527 51.4367 87.8668C50.6274 87.3539 49.8952 86.7653 49.2434 86.116Z" fill="#367C73"/>
<ellipse cx="67.0484" cy="65.9692" rx="8.49495" ry="8.49495" transform="rotate(67.7128 67.0484 65.9692)" fill="#CFF1E7"/>
<path fill-rule="evenodd" clip-rule="evenodd" d="M59.188 69.1911C60.9673 73.5322 65.9289 75.609 70.27 73.8297C74.6112 72.0504 76.688 67.0888 74.9087 62.7477C74.5936 61.9789 74.1787 61.2812 73.6851 60.6633C74.3133 64.4817 72.2546 68.3652 68.5215 69.8954C64.9491 71.3596 60.9566 70.2125 58.663 67.3412C58.7653 67.963 58.9388 68.5831 59.188 69.1911Z" fill="#B5ECDD"/>
<path d="M78.7982 47.085C78.7982 43.0679 70.6176 29.9279 64.4834 21.056C62.9667 18.8622 59.7753 18.8282 58.2034 20.9828C52.0221 29.4556 43.6145 42.0817 43.6145 47.085C43.6145 54.5192 51.5256 64.4316 61.3105 64.4316C71.0953 64.4316 78.7982 53.2939 78.7982 47.085Z" fill="#ECF6FE"/>
<path fill-rule="evenodd" clip-rule="evenodd" d="M58.8693 20.8502C64.9785 29.7758 73.1445 43.0422 73.1445 47.0602C73.1445 52.6642 66.9292 62.2773 58.5862 64.1209C59.5538 64.3233 60.5486 64.4315 61.5637 64.4315C71.2833 64.4315 78.9349 53.278 78.9349 47.0602C78.9349 43.0422 70.7689 29.7758 64.6597 20.8502C63.215 18.7394 60.2264 18.6121 58.5985 20.4978C58.6937 20.6084 58.7842 20.7259 58.8693 20.8502Z" fill="#DCEBFC"/>
</svg>
