<svg width="120" height="120" viewBox="0 0 120 120" fill="none" xmlns="http://www.w3.org/2000/svg">
<rect width="120" height="120" rx="10" fill="#E7F4F2"/>
<path d="M60.2156 30.9263C41.1775 30.9263 24.8243 48.622 19.0275 57.4698C25.8159 52.5882 43.9692 41.4522 60.2156 41.4522C76.9101 41.4522 95.3781 51.6729 102.548 57.4698C96.3696 48.622 79.2537 30.9263 60.2156 30.9263Z" fill="#BADAFB"/>
<path d="M102.548 57.4697C96.3696 48.6219 79.2536 30.9263 60.2156 30.9263V41.4521C76.9101 41.4521 95.378 51.6729 102.548 57.4697Z" fill="#96C8F9"/>
<path d="M60.2156 90.4202C41.1775 90.4202 24.8243 72.7246 19.0275 63.8768C25.8159 68.7583 43.9692 79.8944 60.2156 79.8944C76.9101 79.8944 95.3781 69.6736 102.548 63.8768C96.3696 72.7246 79.2537 90.4202 60.2156 90.4202Z" fill="#BADAFB"/>
<path d="M102.548 63.8767C96.3696 72.7245 79.2536 90.4202 60.2156 90.4202V79.8943C76.9101 79.8943 95.378 69.6736 102.548 63.8767Z" fill="#96C8F9"/>
<ellipse cx="60.6732" cy="60.4444" rx="18.5346" ry="18.5346" fill="#9CE6D1"/>
<path d="M60.6732 78.9792C70.9096 78.9792 79.2079 70.6809 79.2079 60.4445C79.2079 50.2081 70.9096 41.9099 60.6732 41.9099V78.9792Z" fill="#81DEC5"/>
<ellipse cx="60.902" cy="60.6733" rx="3.66117" ry="3.66117" fill="#3A8981"/>
<path fill-rule="evenodd" clip-rule="evenodd" d="M85.3861 17.1969C85.3861 15.554 86.7179 14.2222 88.3608 14.2222H103.234C105.13 14.2222 106.667 15.7589 106.667 17.6546V32.0704C106.667 33.7133 105.335 35.0451 103.692 35.0451C102.049 35.0451 100.717 33.7133 100.717 32.0704V20.1716H88.3608C86.7179 20.1716 85.3861 18.8398 85.3861 17.1969Z" fill="#7DCDD4"/>
<path fill-rule="evenodd" clip-rule="evenodd" d="M85.3861 103.692C85.3861 105.335 86.7179 106.667 88.3608 106.667H103.234C105.13 106.667 106.667 105.13 106.667 103.234V88.8185C106.667 87.1756 105.335 85.8438 103.692 85.8438C102.049 85.8438 100.717 87.1756 100.717 88.8185V100.717H88.3608C86.7179 100.717 85.3861 102.049 85.3861 103.692Z" fill="#7DCDD4"/>
<path fill-rule="evenodd" clip-rule="evenodd" d="M35.5027 103.692C35.5027 105.335 34.1709 106.667 32.528 106.667H17.6545C15.7589 106.667 14.2222 105.13 14.2222 103.234V88.8185C14.2222 87.1756 15.554 85.8438 17.1969 85.8438C18.8397 85.8438 20.1715 87.1756 20.1715 88.8185V100.717H32.528C34.1709 100.717 35.5027 102.049 35.5027 103.692Z" fill="#7DCDD4"/>
<path fill-rule="evenodd" clip-rule="evenodd" d="M35.5027 17.4257C35.5027 15.7829 34.1709 14.451 32.528 14.451H17.6545C15.7589 14.451 14.2222 15.9878 14.2222 17.8834V32.2992C14.2222 33.9421 15.554 35.2739 17.1969 35.2739C18.8397 35.2739 20.1715 33.9421 20.1715 32.2992V20.4004H32.528C34.1709 20.4004 35.5027 19.0686 35.5027 17.4257Z" fill="#7DCDD4"/>
</svg>
