<svg width="120" height="120" viewBox="0 0 120 120" fill="none" xmlns="http://www.w3.org/2000/svg">
<rect width="120" height="120" rx="10" fill="#E7F4F2"/>
<path d="M60.4 83C85.3633 83 99.2 60.2 105 48.8H14.6C19.2 58.2 35.4367 83 60.4 83Z" fill="#8FCCEE"/>
<path d="M63.5277 75.6C83.9593 73.7143 91.2154 65.3143 104.2 48L19.8 48.8571C30.6842 62.5714 41.3813 75.6 63.5277 75.6Z" fill="#63ADDE"/>
<ellipse cx="60" cy="45.2" rx="47" ry="9.2" fill="#427AB9"/>
<ellipse cx="59.6" cy="48.6" rx="45" ry="7.4" fill="#2F597D"/>
<path fill-rule="evenodd" clip-rule="evenodd" d="M75.428 70.3012C70.6695 71.7909 66.1581 72.2943 63.4 72.2943V69.0943C65.842 69.0943 70.0306 68.6377 74.472 67.2474C78.9182 65.8555 83.4867 63.5691 86.8328 60L89.1673 62.1886C85.3133 66.2995 80.1819 68.8131 75.428 70.3012Z" fill="white"/>
</svg>
