<svg width="120" height="120" viewBox="0 0 120 120" fill="none" xmlns="http://www.w3.org/2000/svg">
<rect width="120" height="120" rx="10" fill="#E7F4F2"/>
<path d="M14.711 45.2538C12.908 45.5543 13.0207 46.7563 13.0207 47.5076C13.0207 48.2588 12.908 49.9116 13.2085 50.5126C13.5841 51.2639 13.772 51.2639 14.711 51.8273C16.2136 59.5278 17.1526 64.0354 19.2186 69.1064C21.2846 74.1774 30.8632 77.9337 41.9443 74.9287C53.0255 71.9236 56.4062 56.3349 56.594 53.8933C56.7442 51.94 58.6599 51.3265 59.599 51.2639V46.3807C59.1608 46.5059 57.2701 46.5685 53.2133 45.8172C46.0763 44.6903 38.5637 43 33.4926 43C28.4216 43 16.9648 44.8782 14.711 45.2538Z" fill="#3F4347"/>
<path d="M104.487 45.2538C106.29 45.5543 106.177 46.7563 106.177 47.5076C106.177 48.2588 106.29 49.9116 105.99 50.5126C105.614 51.2639 105.426 51.2639 104.487 51.8273C102.984 59.5278 102.045 64.0354 99.9794 69.1064C97.9135 74.1774 88.3349 77.9337 77.2537 74.9287C66.1726 71.9236 62.7919 56.3349 62.6041 53.8933C62.4538 51.94 60.5381 51.3265 59.599 51.2639V46.3807C60.0373 46.5059 61.9279 46.5685 65.9848 45.8172C73.1218 44.6903 80.6344 43 85.7054 43C90.7765 43 102.233 44.8782 104.487 45.2538Z" fill="#3F4347"/>
<path d="M22.4114 49.8612C18.8053 51.514 19.7819 55.3078 19.7819 57.5617C20.3454 62.257 21.4723 72.7372 31.2387 73.3382C43.4467 74.0894 48.5178 66.2012 51.5228 59.6276C54.5279 53.0541 51.1472 49.2978 41.5686 46.8561C31.99 44.4145 26.9189 47.7952 22.4114 49.8612Z" fill="#7AAEDB"/>
<mask id="mask0_338_431" style="mask-type:alpha" maskUnits="userSpaceOnUse" x="19" y="46" width="34" height="28">
<path d="M22.4114 49.8612C18.8053 51.514 19.7819 55.3078 19.7819 57.5617C20.3454 62.257 21.4723 72.7372 31.2387 73.3382C43.4467 74.0894 48.5178 66.2012 51.5228 59.6276C54.5279 53.0541 51.1472 49.2978 41.5686 46.8561C31.99 44.4145 26.9189 47.7952 22.4114 49.8612Z" fill="#7AAEDB"/>
</mask>
<g mask="url(#mask0_338_431)">
<rect x="32.8311" y="45.8818" width="2.38934" height="25.2594" transform="rotate(-35.704 32.8311 45.8818)" fill="#6BA2D4"/>
<rect x="36.4817" y="44.0009" width="1.71516" height="25.2594" transform="rotate(-35.704 36.4817 44.0009)" fill="#6BA2D4"/>
</g>
<path d="M96.5349 49.8612C100.141 51.514 99.1643 55.3078 99.1643 57.5617C98.6009 62.257 97.474 72.7372 87.7076 73.3382C75.4996 74.0894 70.4285 66.2012 67.4235 59.6276C64.4184 53.0541 67.7991 49.2978 77.3777 46.8561C86.9563 44.4145 92.0273 47.7952 96.5349 49.8612Z" fill="#7AAEDB"/>
</svg>
