<svg width="120" height="120" viewBox="0 0 120 120" fill="none" xmlns="http://www.w3.org/2000/svg">
<rect width="120" height="120" rx="10" fill="#E7F4F2"/>
<path d="M91.827 26.0172L63.6976 54.1465L67.0078 57.9295L95.61 29.3273H99.8659C101.568 29.5165 102.624 28.4604 102.94 27.9087C104.043 25.3867 106.439 19.7752 107.196 17.5053C106.439 14.6681 101.206 12.9282 100.339 13.0071C98.3684 13.9528 97.1232 17.2216 94.6642 17.9782C92.2053 18.7348 91.7482 20.3426 91.827 21.0519V26.0172Z" fill="#DCE3E6"/>
<path d="M88.5168 24.829L61.7991 51.5467L65.1092 55.3298L92.2998 28.1392H96.5557C98.2581 28.3283 99.3142 27.2722 99.6294 26.7206C100.733 24.1985 103.129 18.587 103.885 16.3172C103.129 13.4799 101.206 12.9282 100.339 13.007C98.3684 13.9528 93.813 16.0335 91.354 16.7901C88.8951 17.5467 88.438 19.1545 88.5168 19.8638V24.829Z" fill="#EAF1F5"/>
<path d="M47.6127 63.3687L56.1245 55.0933L66.055 64.7873L57.3067 73.2991L53.7601 84.6482L36.0271 102.618C31.456 105.455 20.9896 109.711 15.6933 104.036C10.3971 98.3617 14.1171 89.8499 16.6391 86.3033L36.0271 66.6788L47.6127 63.3687Z" fill="#8FCCEE"/>
<path d="M47.6127 63.3687L56.1245 55.0933L66.055 64.7873L57.3067 73.2991L53.7601 84.6482L36.0271 102.618C31.456 105.455 20.9896 109.711 15.6933 104.036C10.3971 98.3617 14.1171 89.8499 16.6391 86.3033L36.0271 66.6788L47.6127 63.3687Z" fill="#8FCCEE"/>
<path fill-rule="evenodd" clip-rule="evenodd" d="M14.2876 102.122C14.6608 102.786 15.1252 103.428 15.6933 104.036C20.9895 109.711 31.4559 105.455 36.0271 102.618L53.7601 84.6484L57.3067 73.2993L66.0549 64.7874L63.1079 61.9105L54.5619 70.2256L51.0153 81.5747L33.2823 99.5441C29.0704 102.158 19.8534 105.977 14.2876 102.122Z" fill="#63ADDE"/>
<rect x="41.2716" y="69.989" width="2.83728" height="29.5132" rx="1.41864" transform="rotate(45.5986 41.2716 69.989)" fill="#63ADDE"/>
<rect x="45.4275" y="75.9501" width="2.83728" height="29.5132" rx="1.41864" transform="rotate(45.5986 45.4275 75.9501)" fill="#63ADDE"/>
<rect x="58.3877" y="47.7637" width="19.9829" height="8.98471" rx="4.49236" transform="rotate(46.5168 58.3877 47.7637)" fill="#5F7482"/>
<path fill-rule="evenodd" clip-rule="evenodd" d="M61.2379 63.8255L62.5284 65.1861C64.2357 66.9863 67.0791 67.0616 68.8793 65.3543C70.6795 63.647 70.7548 60.8036 69.0475 59.0034L61.4791 51.0233C61.2915 50.8255 61.0902 50.6485 60.8781 50.4924L67.1559 57.1118C68.8633 58.912 68.788 61.7555 66.9878 63.4628C65.3854 64.9825 62.9565 65.0898 61.2379 63.8255Z" fill="#5F7482"/>
</svg>
