<svg width="932" height="342" viewBox="0 0 932 342" fill="none" xmlns="http://www.w3.org/2000/svg">
<g clip-path="url(#clip0_513_535)">
<path d="M311.371 68.3989H193.199L264.639 228.467L246.913 338.045H409.668L311.371 68.3989Z" fill="#EAF7FE"/>
<path d="M265.219 90.4216C270.805 72.8033 294.045 69.1149 304.967 69.473L332.362 101.165L327.527 71.0845C330.929 71.0845 340.526 71.6217 351.699 73.7702C365.665 76.4559 369.425 90.4216 370.499 99.5531C371.358 106.858 364.411 158.818 360.83 183.884H415.082C423.139 186.033 424.75 190.867 427.436 194.09C429.585 196.668 435.135 229.542 437.642 245.656H358.145C347.546 235.588 334.334 234.929 323.666 234.398L323.23 234.376C312.487 233.839 297.447 231.69 284.556 220.947C271.665 210.204 273.813 191.942 273.813 177.976C251.898 177.546 247.493 159.534 248.03 150.582C251.432 137.869 259.633 108.04 265.219 90.4216Z" fill="#7DCDD4"/>
<path d="M251.79 167.77C254.297 170.814 261.566 177.116 270.59 177.976C279.614 178.835 310.16 181.915 324.304 183.347H595.561" stroke="#062588" stroke-width="3.22286" stroke-linecap="round" stroke-linejoin="round"/>
<path d="M291.538 126.948L285.63 144.673L322.156 152.73" stroke="#062588" stroke-width="3.22286" stroke-linecap="square" stroke-linejoin="round"/>
<path d="M302.282 49.5988C304.431 45.3017 309.265 47.0921 311.413 48.5245L312.488 34.0216C320.366 33.1264 335.155 31.6584 335.585 32.9476C336.122 34.559 339.882 53.8961 339.345 60.3418C338.915 65.4984 331.288 67.5037 327.528 67.8618L332.362 102.776L303.893 70.0104V59.2676C302.461 57.8351 300.133 53.8959 302.282 49.5988Z" fill="#F6C2AF"/>
<path d="M339.376 39.9304C334.22 42.5087 319.323 42.7952 312.519 42.6161C312.161 43.6904 311.445 46.3761 311.445 48.5247C306.611 44.7647 302.851 48.5247 301.776 50.1361C301.239 49.599 294.793 35.6333 295.331 28.1133C295.76 22.0973 302.313 20.2352 305.536 20.0562H316.279C318.428 17.5495 323.262 12.3213 325.411 11.4618C325.948 11.4618 329.708 9.8504 334.005 11.999C337.443 13.7178 337.228 19.1609 336.691 21.6675C337.228 21.8466 338.517 22.527 339.376 23.8161C340.451 25.9647 338.302 28.6504 336.691 29.7247C338.839 29.7247 345.822 36.7075 339.376 39.9304Z" fill="#062588"/>
<path d="M423.676 114.056H333.436L310.339 181.736H401.653L423.676 114.056Z" fill="#427AB9"/>
<path d="M361.367 146.285C366.524 136.401 376.407 137.153 380.704 138.765C376.407 147.789 380.346 152.193 382.853 153.267C380.704 157.027 377.482 159.713 372.647 161.862C366.716 164.498 354.922 158.639 361.367 146.285Z" fill="white"/>
<path d="M386.613 287.016H358.145V323.005H382.316L386.613 287.016Z" fill="#F6C2AF"/>
<path d="M437.105 288.09H404.339L420.99 318.707H451.607L437.105 288.09Z" fill="#F6C2AF"/>
<path d="M434.419 245.656H358.145L352.773 289.165H449.996L434.419 245.656Z" fill="#062588"/>
<path d="M363.516 313.873L352.236 317.096V342.342H388.762V317.096L384.465 313.873L381.242 303.667H365.665L363.516 313.873Z" fill="#07268A"/>
<path d="M433.882 312.799L415.082 309.576L417.768 339.656H472.019L467.185 329.45L450.533 316.559V304.205H438.716L433.882 312.799Z" fill="#07268A"/>
<path d="M514.411 16.8332H430.617L409.668 79.6789H492.925L514.411 16.8332Z" fill="#6FBAE2"/>
<path d="M417.725 0.718781H504.205L499.908 12.5359H427.394L408.594 67.3245H395.165L417.725 0.718781Z" fill="#427AB9"/>
<path d="M533.748 49.5988H431.153V104.387H460.159V184.422H502.862H545.565V162.936H533.748V49.5988Z" fill="#062588"/>
<path d="M475.737 85.0504H454.788V162.936H434.914V181.736H510.114V162.936H495.074L475.737 85.0504Z" fill="#6FBAE2"/>
<rect x="482.72" y="42.0789" width="106.354" height="42.9714" rx="21.4857" fill="#6FBAE2"/>
<path fill-rule="evenodd" clip-rule="evenodd" d="M541.805 42.0789C529.939 42.0789 520.319 51.6984 520.319 63.5646C520.319 75.4309 529.939 85.0503 541.805 85.0503H567.588C579.454 85.0503 589.074 75.4309 589.074 63.5646C589.074 51.6984 579.454 42.0789 567.588 42.0789H541.805ZM542.342 51.7475C536.113 51.7475 531.062 56.7977 531.062 63.0275C531.062 69.2573 536.113 74.3075 542.342 74.3075H572.422C578.652 74.3075 583.702 69.2573 583.702 63.0275C583.702 56.7977 578.652 51.7475 572.422 51.7475H542.342Z" fill="#062588"/>
<circle cx="555.771" cy="63.5653" r="11.8171" fill="white"/>
<circle cx="572.959" cy="63.5643" r="11.8171" fill="white"/>
<path d="M634.194 67.8616L631.508 37.2444C631.508 21.1303 668.571 30.799 668.571 47.9873V76.993H643.862V71.6216C637.846 73.7702 634.91 70.0102 634.194 67.8616Z" fill="#F6C2AF"/>
<path d="M644.936 20.593C637.631 21.0227 633.298 24.353 632.045 25.9644C627.748 29.402 626.674 36.1703 629.359 38.856L642.251 49.0617C642.788 47.8084 644.614 45.4091 647.622 45.8388C652.349 46.6983 652.814 53.0007 652.456 56.0446C653.352 57.1188 656.646 59.0526 662.662 58.1931C677.165 54.9703 674.479 29.1873 670.719 24.8901C666.959 20.593 654.068 20.0558 644.936 20.593Z" fill="#062588"/>
<path d="M571.348 199.461C585.528 195.164 634.193 194.448 656.753 194.627L674.479 310.113H636.879L620.228 238.136H607.873L624.525 310.113H583.165C576.54 288.448 562.646 242.97 560.068 234.376C556.845 223.633 553.622 204.833 571.348 199.461Z" fill="#7DCDD4"/>
<path d="M605.725 101.702L596.056 132.319L632.045 140.376C630.612 149.149 627.425 168.307 626.136 174.753C624.847 181.199 620.228 184.601 618.079 185.496V194.627C647.729 201.073 699.725 199.462 721.21 197.85V128.022C712.616 95.7931 699.188 92.0331 696.502 90.9588C693.816 89.8845 680.925 81.8274 650.845 81.8274C626.781 81.8274 610.738 95.0769 605.725 101.702Z" fill="#427AB9"/>
<path d="M633.119 139.302L601.428 132.319L599.816 156.49L553.622 158.102L553.085 151.656L545.565 145.21C543.416 143.921 539.656 147.896 541.805 150.044C542.342 150.403 543.846 151.656 545.565 153.804C539.119 151.656 522.468 148.433 520.856 149.507C515.485 153.267 519.245 172.067 524.079 174.216C527.947 175.935 548.251 176.723 557.919 176.902C568.483 179.229 593.048 184.422 606.799 186.57C620.55 188.719 625.778 181.02 626.673 176.902L633.119 139.302Z" fill="#F6C2AF"/>
<path d="M647.085 75.3815C641.069 75.3815 637.775 82.5434 636.879 86.1244H675.554C673.835 77.9598 669.645 75.3815 665.885 75.3815H647.085Z" fill="white"/>
<path d="M671.794 111.907H759.348L727.119 234.376H639.565L671.794 111.907Z" fill="#6FBAE2"/>
<path d="M733.028 233.839H611.096C601.213 233.839 601.965 247.804 611.096 247.804H733.028C742.911 247.804 742.159 233.839 733.028 233.839Z" fill="#062588"/>
<path d="M622.376 307.964H589.074L568.662 329.987V338.581H620.228L622.376 307.964Z" fill="#427AB9"/>
<path d="M667.496 308.502H635.805L625.062 329.45V339.656H667.496V308.502Z" fill="#427AB9"/>
<path d="M615.931 342.342L627.748 247.267H631.508L620.228 342.342H615.931Z" fill="#062588"/>
<path d="M688.445 342.342L668.571 247.267H664.811L684.148 342.342H688.445Z" fill="#062588"/>
<path d="M737.862 342.342L717.988 247.267H714.228L733.565 342.342H737.862Z" fill="#062588"/>
<path d="M553.231 248.879C538.191 244.582 533.356 259.98 532.819 268.216C530.671 266.927 522.614 267.679 518.854 268.216L535.505 337.507C541.414 340.014 556.668 342.342 570.419 331.599C584.17 320.856 573.642 311.367 566.659 307.965C570.419 306.89 585.817 299.907 584.385 293.462C581.043 278.422 567.196 281.645 559.139 283.793C566.659 275.736 572.031 254.25 553.231 248.879Z" fill="#BCE9FB"/>
<path d="M531.746 301.519C553.661 310.543 548.397 330.883 542.489 339.119H483.94C478.568 317.633 486.626 309.576 493.071 301.519C484.047 289.057 493.25 279.854 498.98 276.81C498.085 266.246 498.873 244.474 509.186 241.896C522.077 238.673 527.449 269.29 528.523 278.959C543.026 288.09 534.431 299.37 531.746 301.519Z" fill="#EAF7FE"/>
<path d="M247.988 341.267L764.72 341.267" stroke="#062588" stroke-width="4.29714" stroke-linecap="round" stroke-linejoin="round"/>
</g>
<defs>
<clipPath id="clip0_513_535">
<rect width="932" height="343.281" fill="white" transform="translate(0 0.71875)"/>
</clipPath>
</defs>
</svg>
